<svg version="1" xmlns="http://www.w3.org/2000/svg" width="682.667" height="682.667" viewBox="0 0 512.000000 512.000000"><path d="M239 30c-12.7 1.6-16.1 2.2-27 4.6-11.7 2.6-27.6 7.5-36.3 11.3-2.6 1.1-5.1 2.1-5.5 2.2-.4.1-1.9 1-3.4 2-1.4 1-3 1.9-3.5 1.9-1.3 0-16.3 9.9-21.8 14.3-23.7 19.4-38.3 47.7-38.7 75.2-.2 7.9 1 12.1 5.9 21.9 10.6 21.2 34.6 51 67.8 84.1 26 26 44.9 41.8 57.4 48.2 4.5 2.2 6.7 2.7 11.3 2.6 30.5-1.1 66.3-33.7 98.4-89.4 17.6-30.6 34.9-72.1 37.3-88.9 1-7.3-.9-14-6.4-22.5-19.9-31.3-60.8-58.4-99.6-66-9.3-1.8-27.3-2.6-35.9-1.5zM408.4 189.9c-14.6 5.3-25.9 14.7-40.4 33.6-7.9 10.3-18.5 22.8-28.9 34-2.5 2.8-8 8.8-12.1 13.5-4.1 4.7-7.7 8.7-8.1 9-.3.3-4.5 5.4-9.2 11.4-9.4 11.8-13.1 18.5-12.8 22.9.4 7.5 15.9 39.4 20.1 41.7 2.7 1.4 15.9-.1 30.7-3.5 35.5-8.4 75.1-26.9 106.6-49.9 6.2-4.5 12.3-9.1 13.5-10.1 1.3-1.1 3.3-2.8 4.5-3.8 6.3-5.2 16.3-15.9 19.8-21.1 17.9-26.8 3.4-54.6-37.3-71-18.5-7.4-37.1-10.1-46.4-6.7zM60 201.6c-12.9 6.5-26.8 22.3-34.7 39.4-6.8 14.8-9.2 26.6-8.8 42.9.5 21.5 7.4 35.9 27 56.9 13.3 14.2 31.2 24 48.8 26.6 2 .3 5.2.8 7 1.1 9.8 1.4 50 2.1 57.7.9 20.2-3 28.6-7.6 44.6-24.1 7.4-7.7 13.1-16.1 13.8-20.3.9-5.8-4.6-11.8-27.2-29.4-6.3-4.9-14-11.4-17.1-14.5-5.4-5.3-8.3-8.5-28.6-31.6-4.8-5.5-14.7-15.9-21.9-23-19.9-19.7-33.4-28-46.6-28.4-5.7-.2-7.4.2-14 3.5zM248.4 319.9c-19.4 7.1-33.7 25.2-37.5 47.1-1.1 6.3-1.3 18.5-.3 23.5l.6 3.4 5.1-2.8c30.3-16.3 57.8-15.1 76.1 3.3 3.6 3.7 6.6 7.4 6.6 8.2 0 2.4 2.3 1.1 4.4-2.6 3.5-6 2.1-25.3-2.6-36.9-8.9-21.5-19.2-34.6-32.3-41-8.2-4.1-13.6-4.7-20.1-2.2zM407.6 361.7c-.1.1-2.9.5-6.1.9-3.3.3-6.3.8-6.6 1-.4.2-2.4.6-4.5 1-2.2.3-5.7.9-7.9 1.4-4.4 1-6.3 1.3-21 4-9.3 1.6-27.1 2-35.7.6-1.6-.2-3.1 0-3.4.6-2.2 3.5-.2 23.6 3.2 32.5 4.3 11.1 25.3 23.4 44.2 25.9 17.9 2.3 29.7-.5 45.5-11 12.5-8.3 14.9-13.3 15.1-31.6.1-12.5-.1-13.8-2.3-17.6-3.2-5.7-8.6-8.6-15.2-8.2-2.8.2-5.2.4-5.3.5zM177.3 382.2c-9.3 5.1-18.1 6.8-32.8 6.3-7.1-.2-14.3-.7-16-1-5.5-1-18.7-1.2-24.3-.3-6 1-14.2 4.5-18.4 8-2.8 2.3-2.8 2.3-1.4 7.4 4.6 17.2 21.8 32.9 44.1 40.3 15.9 5.2 27.1 5.8 36 1.7 12.5-5.7 22.8-14.7 26.9-23.5 3-6.5 2.9-24-.1-32.3-3.5-9.6-6.2-10.8-14-6.6z"/><path d="M239.5 397.9c-10.6 3.1-18.1 7.8-19.9 12.6-.7 2-.8 14.6-.2 19.7.6 4 3.6 13.9 5.3 17.2 4.7 9.1 16.9 17.2 30.2 19.9 8.3 1.8 10 1.6 14-1.2 4.9-3.5 14.1-18.5 17.6-28.6 5.2-15.1-1.5-29.9-17-37.6-5.3-2.6-7.6-3.1-15.1-3.4-6.3-.2-10.6.2-14.9 1.4z"/></svg>