<?xml version="1.0" encoding="utf-8"?>
<!-- Generator: Adobe Illustrator 21.0.2, SVG Export Plug-In . SVG Version: 6.00 Build 0)  -->
<svg version="1.1" id="document_copy" xmlns="http://www.w3.org/2000/svg" xmlns:xlink="http://www.w3.org/1999/xlink" x="0px"
	 y="0px" viewBox="0 0 48 48" style="enable-background:new 0 0 48 48;" xml:space="preserve">
<path d="M40.6,11.2l-9.8-9.8C30.6,1.2,30.3,1,30,1h0c0,0,0,0,0,0H11C8.8,1,7,2.8,7,5v38c0,2.2,1.8,4,4,4h26c2.2,0,4-1.8,4-4V12
	c0,0,0,0,0,0v0C41,11.7,40.8,11.4,40.6,11.2z M33,39H15c-0.6,0-1-0.4-1-1c0-0.6,0.4-1,1-1h18c0.6,0,1,0.4,1,1C34,38.6,33.6,39,33,39
	z M33,33H15c-0.6,0-1-0.4-1-1c0-0.6,0.4-1,1-1h18c0.6,0,1,0.4,1,1C34,32.6,33.6,33,33,33z M33,27H15c-0.6,0-1-0.4-1-1
	c0-0.6,0.4-1,1-1h18c0.6,0,1,0.4,1,1C34,26.6,33.6,27,33,27z M33,21H15c-0.6,0-1-0.4-1-1c0-0.6,0.4-1,1-1h18c0.6,0,1,0.4,1,1
	C34,20.6,33.6,21,33,21z M32.2,11c-0.7,0-1.2-0.6-1.2-1.2V4.4l6.6,6.6H32.2z"/>
</svg>
