<?xml version="1.0" encoding="utf-8"?>
<!-- Generator: Adobe Illustrator 21.0.2, SVG Export Plug-In . SVG Version: 6.00 Build 0)  -->
<svg version="1.1" id="edit_round" xmlns="http://www.w3.org/2000/svg" xmlns:xlink="http://www.w3.org/1999/xlink" x="0px" y="0px"
	 viewBox="0 0 48 48" style="enable-background:new 0 0 48 48;" xml:space="preserve">
<g>
	<path d="M16,28.4l12.1-12.1L27,15.2l-13,13L16,28.4C16,28.4,16,28.4,16,28.4z"/>
	<polygon points="15.7,29.7 13.4,29.3 12.2,33.4 14.6,35.8 18.8,34.6 18,32.3 	"/>
	<path d="M18.4,30.9l12.2-12.2l-1.5-1.5L16.9,29.3c0,0,0,0,0,0L18.4,30.9z"/>
	<polygon points="19.2,32 19.9,33.9 32.8,21 31.5,19.7 	"/>
	<path d="M24,2.9C12.4,2.9,2.9,12.4,2.9,24c0,11.6,9.5,21.1,21.1,21.1S45.1,35.6,45.1,24C45.1,12.4,35.6,2.9,24,2.9z M37,18.6
		c0,0.1-0.1,0.1-0.1,0.2L20.2,35.4c-0.1,0.1-0.2,0.2-0.3,0.3l-9.3,2.6c0,0,0,0-0.1,0l0,0c0,0,0,0,0,0c-0.1,0-0.1,0-0.2,0
		c-0.1,0-0.1,0-0.2,0c0,0,0,0,0,0c0,0,0,0,0,0c-0.1,0-0.1-0.1-0.2-0.1c0,0-0.1,0-0.1-0.1s0,0-0.1-0.1c0-0.1-0.1-0.1-0.1-0.2
		c0,0,0,0,0,0c0,0,0,0,0,0c0-0.1,0-0.1,0-0.2c0-0.1,0-0.1,0-0.2c0,0,0,0,0,0l0,0c0,0,0,0,0-0.1l2.6-9.3c0.1-0.1,0.2-0.2,0.3-0.3
		l16.3-16.3c0,0,0.1-0.1,0.1-0.1l0.2-0.2c0,0,0,0,0,0c1-0.9,2.3-1.5,3.7-1.5c3,0,5.4,2.4,5.4,5.4C38.4,16.4,37.8,17.7,37,18.6z"/>
	<path d="M32.9,11c-1.2,0-2.3,0.5-3,1.3l0,0l-0.3,0.3l5.8,5.8l0.4-0.4l0,0c0.8-0.8,1.3-1.8,1.3-3C37,12.8,35.2,11,32.9,11z"/>
	<rect x="30.8" y="12.7" transform="matrix(0.7071 -0.7071 0.7071 0.7071 -2.7302 26.9938)" width="0.9" height="8.2"/>
</g>
</svg>
