<?xml version="1.0" encoding="utf-8"?>
<!-- Generator: Adobe Illustrator 21.0.2, SVG Export Plug-In . SVG Version: 6.00 Build 0)  -->
<svg version="1.1" id="cog_copy" xmlns="http://www.w3.org/2000/svg" xmlns:xlink="http://www.w3.org/1999/xlink" x="0px" y="0px"
	 viewBox="0 0 48 48" style="enable-background:new 0 0 48 48;" xml:space="preserve">
<g>
	<path d="M24,15.5c-4.7,0-8.5,3.8-8.5,8.5s3.8,8.5,8.5,8.5s8.5-3.8,8.5-8.5S28.8,15.5,24,15.5z M24,30.4c-3.5,0-6.4-2.9-6.4-6.4
		s2.9-6.4,6.4-6.4c3.5,0,6.4,2.9,6.4,6.4S27.5,30.4,24,30.4z"/>
	<path d="M44.3,20.5l-5.1-1c-0.3-1-0.7-2-1.2-2.9l2.9-4.3c0.3-0.4,0.2-1-0.1-1.3l-3.6-3.6C37,7,36.7,7,36.3,7C36.2,7,36,7,35.8,7.2
		L31.5,10c-1-0.5-2-0.9-3-1.2l-0.9-5.1C27.5,3.3,27,3,26.5,3h-5.1c-0.5,0-0.9,0.4-1,0.9l-1,5.1c-1,0.3-2,0.7-2.9,1.2l-4.2-2.9
		C12,7,11.8,7,11.7,7c-0.3,0-0.6,0.1-0.8,0.3L7.3,11c-0.3,0.3-0.4,0.9-0.1,1.3l2.9,4.3c-0.5,0.9-0.9,1.9-1.2,2.9l-5.1,1
		c-0.5,0.1-0.9,0.6-0.9,1v5.1c0,0.5,0.4,0.9,0.9,1l5.1,1c0.3,1,0.7,2,1.2,3l-2.9,4.2c-0.3,0.4-0.2,1,0.1,1.3l3.6,3.6
		c0.2,0.2,0.5,0.3,0.8,0.3c0.2,0,0.4-0.1,0.6-0.2l4.2-2.9c0.9,0.5,1.9,0.9,2.9,1.2l1,5.1c0.1,0.5,0.6,0.9,1,0.9h5.1
		c0.5,0,0.9-0.4,1-0.9l0.9-5.1c1-0.3,2.1-0.7,3-1.2l4.3,2.9c0.2,0.1,0.4,0.2,0.6,0.2c0.3,0,0.6-0.1,0.8-0.3l3.6-3.6
		c0.3-0.3,0.4-0.9,0.1-1.3L38,31.7c0.5-0.9,0.9-2,1.2-3l5.1-1c0.5-0.1,0.9-0.6,0.9-1v-5.1C45.2,21,44.8,20.7,44.3,20.5z M24,34.3
		c-5.7,0-10.3-4.6-10.3-10.3S18.3,13.8,24,13.8c5.6,0,10.2,4.6,10.2,10.3S29.8,34.3,24,34.3z"/>
</g>
</svg>
