<?xml version="1.0" encoding="utf-8"?>
<!-- Generator: Adobe Illustrator 21.0.2, SVG Export Plug-In . SVG Version: 6.00 Build 0)  -->
<svg version="1.1" id="calendar" xmlns="http://www.w3.org/2000/svg" xmlns:xlink="http://www.w3.org/1999/xlink" x="0px" y="0px"
	 viewBox="0 0 48 48" style="enable-background:new 0 0 48 48;" xml:space="preserve">
<g>
	<path d="M23,38h2c0.6,0,1-0.4,1-1v-2c0-0.6-0.4-1-1-1h-2c-0.6,0-1,0.4-1,1v2C22,37.6,22.4,38,23,38z"/>
	<path d="M23,31h2c0.6,0,1-0.4,1-1v-2c0-0.6-0.4-1-1-1h-2c-0.6,0-1,0.4-1,1v2C22,30.6,22.4,31,23,31z"/>
	<path d="M31,31h2c0.6,0,1-0.4,1-1v-2c0-0.6-0.4-1-1-1h-2c-0.6,0-1,0.4-1,1v2C30,30.6,30.4,31,31,31z"/>
	<path d="M23,24h2c0.6,0,1-0.4,1-1v-2c0-0.6-0.4-1-1-1h-2c-0.6,0-1,0.4-1,1v2C22,23.6,22.4,24,23,24z"/>
	<path d="M39,24h2c0.6,0,1-0.4,1-1v-2c0-0.6-0.4-1-1-1h-2c-0.6,0-1,0.4-1,1v2C38,23.6,38.4,24,39,24z"/>
	<path d="M39,31h2c0.6,0,1-0.4,1-1v-2c0-0.6-0.4-1-1-1h-2c-0.6,0-1,0.4-1,1v2C38,30.6,38.4,31,39,31z"/>
	<path d="M31,24h2c0.6,0,1-0.4,1-1v-2c0-0.6-0.4-1-1-1h-2c-0.6,0-1,0.4-1,1v2C30,23.6,30.4,24,31,24z"/>
	<path d="M7,31h2c0.6,0,1-0.4,1-1v-2c0-0.6-0.4-1-1-1H7c-0.6,0-1,0.4-1,1v2C6,30.6,6.4,31,7,31z"/>
	<path d="M7,38h2c0.6,0,1-0.4,1-1v-2c0-0.6-0.4-1-1-1H7c-0.6,0-1,0.4-1,1v2C6,37.6,6.4,38,7,38z"/>
	<path d="M43,5H5C2.8,5,1,6.8,1,9v30c0,2.2,1.8,4,4,4h38c2.2,0,4-1.8,4-4V9C47,6.8,45.2,5,43,5z M6,10.5c0-0.6,0.4-1,1-1h10.3
		c0.6,0,1,0.4,1,1v2c0,0.6-0.4,1-1,1H7c-0.6,0-1-0.4-1-1V10.5z M45,39c0,1.1-0.9,2-2,2H5c-1.1,0-2-0.9-2-2V17h42V39z"/>
	<path d="M15,24h2c0.6,0,1-0.4,1-1v-2c0-0.6-0.4-1-1-1h-2c-0.6,0-1,0.4-1,1v2C14,23.6,14.4,24,15,24z"/>
	<path d="M15,31h2c0.6,0,1-0.4,1-1v-2c0-0.6-0.4-1-1-1h-2c-0.6,0-1,0.4-1,1v2C14,30.6,14.4,31,15,31z"/>
	<path d="M15,38h2c0.6,0,1-0.4,1-1v-2c0-0.6-0.4-1-1-1h-2c-0.6,0-1,0.4-1,1v2C14,37.6,14.4,38,15,38z"/>
</g>
</svg>
