<?xml version="1.0" encoding="utf-8"?>
<!-- Generator: Adobe Illustrator 21.0.2, SVG Export Plug-In . SVG Version: 6.00 Build 0)  -->
<svg version="1.1" id="OK" xmlns="http://www.w3.org/2000/svg" xmlns:xlink="http://www.w3.org/1999/xlink" x="0px" y="0px"
	 viewBox="0 0 48 48" style="enable-background:new 0 0 48 48;" xml:space="preserve">
<path d="M24,2.9C12.4,2.9,2.9,12.4,2.9,24c0,11.6,9.5,21.1,21.1,21.1S45.1,35.6,45.1,24C45.1,12.4,35.6,2.9,24,2.9z M36.9,19
	L22.6,33.3c-0.9,0.9-2.5,0.9-3.4,0l-8.1-8.1c-0.9-0.9-0.9-2.5,0-3.4L12,21c0.9-0.9,2.5-0.9,3.4,0l5.5,5.5l11.8-11.8
	c0.9-0.9,2.5-0.9,3.4,0l0.9,0.9C37.8,16.5,37.8,18,36.9,19z"/>
</svg>
