<?xml version="1.0" encoding="utf-8"?>
<!-- Generator: Adobe Illustrator 21.0.2, SVG Export Plug-In . SVG Version: 6.00 Build 0)  -->
<svg version="1.1" id="person_2" xmlns="http://www.w3.org/2000/svg" xmlns:xlink="http://www.w3.org/1999/xlink" x="0px" y="0px"
	 viewBox="0 0 48 48" style="enable-background:new 0 0 48 48;" xml:space="preserve">
<path d="M24,2.9C12.4,2.9,2.9,12.4,2.9,24c0,11.6,9.5,21.1,21.1,21.1S45.1,35.6,45.1,24C45.1,12.4,35.6,2.9,24,2.9z M37.7,37.3
	c-0.1-0.1-0.2-0.2-0.3-0.3c-2.1-2.2-5.2-3.5-9.4-4c-0.3-0.4-0.5-0.8-0.5-1c0-0.3,0.3-0.9,0.6-1.4c2.5-1.8,4.1-5.2,4.1-9.6
	c0-0.2,0-0.4,0-0.7c0-2.2,0.1-5.8-2.2-8.1C28.7,10.7,26.6,10,24,10s-4.7,0.7-6.1,2.1c-2.3,2.4-2.2,6-2.2,8.1c0,0.2,0,0.5,0,0.7
	c0,4.4,1.6,7.8,4.1,9.6c0.3,0.6,0.6,1.1,0.6,1.4c0,0.2-0.2,0.6-0.5,1c-4.1,0.5-7.3,1.8-9.4,4c-0.1,0.1-0.2,0.2-0.3,0.3
	C7,33.9,4.9,29.2,4.9,24C4.9,13.5,13.5,4.9,24,4.9S43.1,13.5,43.1,24C43.1,29.2,41,33.9,37.7,37.3z"/>
</svg>
