<?xml version="1.0" encoding="utf-8"?>
<!-- Generator: Adobe Illustrator 21.0.2, SVG Export Plug-In . SVG Version: 6.00 Build 0)  -->
<svg version="1.1" id="flower_4" xmlns="http://www.w3.org/2000/svg" xmlns:xlink="http://www.w3.org/1999/xlink" x="0px" y="0px"
	 viewBox="0 0 48 48" style="enable-background:new 0 0 48 48;" xml:space="preserve">
<style type="text/css">
	.st0{fill-rule:evenodd;clip-rule:evenodd;}
</style>
<g>
	<path class="st0" d="M35.8,15.6c4.2-0.2,9.3,1.7,10,3.2c0.5,1.9,0.1,3-0.4,3.9c-1,3.3-4.4,5.2-7.5,6.4c1.2,1.8,4.7,8.8,2.9,13.6
		c-1.7,6-10.8,0-12.8-2.1c-0.7-1.1-1.4-2.1-2.1-3.2c-1.7,3-4.6,7.2-11.4,7.5c-2.6-0.9-3-2.3-3.2-3.2c-0.1-3.4,0.4-5.4,1.4-7.5
		C6.5,33.9,2.3,34,1.9,29.9c-0.1-1.9,2.2-4.5,4.6-6.1c1.4-0.9,4-1.1,5-2.5c-3.1-2-6-13.1-0.7-15c5.1-2.5,10.3,3.4,12.1,5
		c0.5-4.7,4.5-8.9,9.6-8.6C35.6,5.7,36.9,9.3,35.8,15.6z M23.3,16.7c0.8,0.8,1.1,1.4,0,2.9c0.2,0.1,0.4,0.6,0.4,0.7
		c-0.4,0.3-0.8,0.4-1.1,0.4c-0.4-0.5-0.4-1.1-1.1-0.9c-0.9-0.1-1.4-1.2-1-2C21.1,16.6,22.8,16.3,23.3,16.7z M26.2,18.4
		c0.7-0.7,3.2,0.4,3.2,1.1c0.2,0.3,0.3,0.7-0.4,1.4c-0.4,0.3-0.5-0.1-0.8,0.2c-0.3,0.2-0.6,0.4-1,0.5c0-0.1,0-0.2,0-0.4
		c-0.2-0.1-0.3-0.3-0.5-0.4C26,20.2,25.6,19.6,26.2,18.4z M23.3,20.9c0.4-0.3,1.5-0.9,2.9,0c0.2,0.1,0.6,0.6,0.7,1.4
		c0.1,0.2-0.4,1.5-1.1,1.4c0.1,0.6,0.3,1.9,0,3.2c-0.2,0.4-1.8,0.8-2.1,0.4c-2.3-2.2-2.2-1.5-3.9-2.9c-0.3,0.8-2.1,0.6-2.5,0
		c-0.5-0.1-0.8-1.4,0-2.1c0.8-0.9,1.7-1.2,2.9-0.7c0.4,0.3,0.5,0.8,0.4,1.1c1.7,1.4,2.6,1.8,3.6,3.6c0.1,0,0.2,0,0.4,0
		c0-0.7,0-1.4,0-2.1C22.6,23.3,22.4,22.6,23.3,20.9z M27.6,22c0.2,0,0.5,0,0.7,0c-0.2,0.3-0.6,1.4-0.7,1.4
		C27.5,23.5,27.6,22.5,27.6,22z"/>
</g>
</svg>
