<?xml version="1.0" encoding="utf-8"?>
<!-- Generator: Adobe Illustrator 21.0.2, SVG Export Plug-In . SVG Version: 6.00 Build 0)  -->
<svg version="1.1" id="person_1" xmlns="http://www.w3.org/2000/svg" xmlns:xlink="http://www.w3.org/1999/xlink" x="0px" y="0px"
	 viewBox="0 0 48 48" style="enable-background:new 0 0 48 48;" xml:space="preserve">
<path d="M24,2.9C12.4,2.9,2.9,12.4,2.9,24c0,11.6,9.5,21.1,21.1,21.1S45.1,35.6,45.1,24C45.1,12.4,35.6,2.9,24,2.9z M11.8,38.7
	c1.4-1.6,3.7-2.8,6.6-3.4c-0.7,1.1-1.2,2.3-0.6,3.4c0.7,1.3,2.6,1.9,6.2,1.9c3.6,0,5.6-0.6,6.2-1.9c0.6-1.1,0.1-2.2-0.6-3.4
	c2.9,0.6,5.2,1.7,6.6,3.4c-3.3,2.8-7.6,4.4-12.2,4.4C19.4,43.1,15.1,41.4,11.8,38.7z M24,29.9c-4.3,0-6.3-4.6-6.3-8.9
	c0-0.2,0-0.5,0-0.7c0-2-0.1-4.9,1.6-6.7c1-1,2.6-1.5,4.7-1.5c2.1,0,3.7,0.5,4.7,1.5c1.7,1.8,1.7,4.7,1.6,6.7c0,0.3,0,0.5,0,0.7
	C30.3,25.2,28.3,29.9,24,29.9z M24,31.9c0.6,0,1.1-0.1,1.6-0.2c0,0.1,0,0.2,0,0.3c0,0.6,0.3,1.2,0.6,1.8c0.1,0.2,0.3,0.4,0.4,0.6
	c0.1,0.2,0.2,0.3,0.3,0.5c0,0,0,0,0,0l0,0c0.1,0.1,0.2,0.2,0.2,0.3c0.5,0.7,1.5,2.1,1.3,2.5c0,0.1-0.5,0.8-4.5,0.8
	c-3.9,0-4.4-0.7-4.5-0.8c-0.2-0.4,0.8-1.8,1.3-2.5c0.3-0.4,0.5-0.8,0.8-1.1c0.1-0.2,0.3-0.4,0.4-0.6c0,0,0,0,0,0
	c0.1-0.2,0.2-0.4,0.3-0.6l0,0h0c0.1-0.3,0.2-0.6,0.2-0.8c0-0.1,0-0.2,0-0.3C22.9,31.8,23.4,31.9,24,31.9z M37.7,37.3
	c-0.1-0.1-0.2-0.2-0.3-0.3c-2.1-2.2-5.2-3.5-9.4-4c-0.3-0.4-0.5-0.8-0.5-1c0-0.3,0.3-0.9,0.6-1.4c2.5-1.8,4.1-5.2,4.1-9.6
	c0-0.2,0-0.4,0-0.7c0-2.2,0.1-5.8-2.2-8.1C28.7,10.7,26.6,10,24,10s-4.7,0.7-6.1,2.1c-2.3,2.4-2.2,6-2.2,8.1c0,0.2,0,0.5,0,0.7
	c0,4.4,1.6,7.8,4.1,9.6c0.3,0.6,0.6,1.1,0.6,1.4c0,0.2-0.2,0.6-0.5,1c-4.1,0.5-7.3,1.8-9.4,4c-0.1,0.1-0.2,0.2-0.3,0.3
	C7,33.9,4.9,29.2,4.9,24C4.9,13.5,13.5,4.9,24,4.9S43.1,13.5,43.1,24C43.1,29.2,41,33.9,37.7,37.3z"/>
</svg>
