<?xml version="1.0" encoding="utf-8"?>
<!-- Generator: Adobe Illustrator 21.0.2, SVG Export Plug-In . SVG Version: 6.00 Build 0)  -->
<svg version="1.1" id="folder" xmlns="http://www.w3.org/2000/svg" xmlns:xlink="http://www.w3.org/1999/xlink" x="0px" y="0px"
	 viewBox="0 0 48 48" style="enable-background:new 0 0 48 48;" xml:space="preserve">
<path d="M45.5,8.6h-24v-1c0-2.2-1.8-4-4-4h-8c-2.2,0-4,1.8-4,4v10h-3c-0.6,0-1,0.4-1,1v20c0,2.8,2.2,5,5,5h1h33c2.8,0,6-2.2,6-5v-29
	C46.5,9,46.1,8.6,45.5,8.6z M39.5,38.6v-20c0-0.3-0.1-0.5-0.3-0.7c-0.2-0.2-0.4-0.3-0.7-0.3H8v-3.1h36.4v24.2c0,1-0.8,1.8-1.8,1.8
	h-1.1C40.7,40.3,39.5,39.8,39.5,38.6z"/>
</svg>
