<?xml version="1.0" encoding="utf-8"?>
<!-- Generator: Adobe Illustrator 21.0.2, SVG Export Plug-In . SVG Version: 6.00 Build 0)  -->
<svg version="1.1" id="x_round" xmlns="http://www.w3.org/2000/svg" xmlns:xlink="http://www.w3.org/1999/xlink" x="0px" y="0px"
	 viewBox="0 0 48 48" style="enable-background:new 0 0 48 48;" xml:space="preserve">
<style type="text/css">
	.st0{fill:#FFFFFF;}
	.st1{fill:#DE0069;}
</style>
<path class="st0" d="M24,2.9C12.4,2.9,2.9,12.4,2.9,24c0,11.6,9.5,21.1,21.1,21.1S45.1,35.6,45.1,24C45.1,12.4,35.6,2.9,24,2.9z"/>
<path class="st1" d="M28.2,24l4.6-4.6c1-1,1-2.6,0-3.5l-0.7-0.7c-1-1-2.6-1-3.5,0L24,19.8l-4.6-4.6c-1-1-2.6-1-3.5,0l-0.7,0.7
	c-1,1-1,2.6,0,3.5l4.6,4.6l-4.6,4.6c-1,1-1,2.6,0,3.5l0.7,0.7c1,1,2.6,1,3.5,0l4.6-4.6l4.6,4.6c1,1,2.6,1,3.5,0l0.7-0.7
	c1-1,1-2.6,0-3.5L28.2,24z"/>
</svg>
