<?xml version="1.0" encoding="utf-8"?>
<!-- Generator: Adobe Illustrator 21.0.2, SVG Export Plug-In . SVG Version: 6.00 Build 0)  -->
<svg version="1.1" id="calendar_copy" xmlns="http://www.w3.org/2000/svg" xmlns:xlink="http://www.w3.org/1999/xlink" x="0px"
	 y="0px" viewBox="0 0 48 48" style="enable-background:new 0 0 48 48;" xml:space="preserve">
<g>
	<path d="M1,17v22c0,2.2,1.8,4,4,4h38c2.2,0,4-1.8,4-4V17H1z M10,37c0,0.6-0.4,1-1,1H7c-0.6,0-1-0.4-1-1v-2c0-0.6,0.4-1,1-1h2
		c0.6,0,1,0.4,1,1V37z M10,30c0,0.6-0.4,1-1,1H7c-0.6,0-1-0.4-1-1v-2c0-0.6,0.4-1,1-1h2c0.6,0,1,0.4,1,1V30z M18,37c0,0.6-0.4,1-1,1
		h-2c-0.6,0-1-0.4-1-1v-2c0-0.6,0.4-1,1-1h2c0.6,0,1,0.4,1,1V37z M18,30c0,0.6-0.4,1-1,1h-2c-0.6,0-1-0.4-1-1v-2c0-0.6,0.4-1,1-1h2
		c0.6,0,1,0.4,1,1V30z M18,23c0,0.6-0.4,1-1,1h-2c-0.6,0-1-0.4-1-1v-2c0-0.6,0.4-1,1-1h2c0.6,0,1,0.4,1,1V23z M26,37
		c0,0.6-0.4,1-1,1h-2c-0.6,0-1-0.4-1-1v-2c0-0.6,0.4-1,1-1h2c0.6,0,1,0.4,1,1V37z M26,30c0,0.6-0.4,1-1,1h-2c-0.6,0-1-0.4-1-1v-2
		c0-0.6,0.4-1,1-1h2c0.6,0,1,0.4,1,1V30z M26,23c0,0.6-0.4,1-1,1h-2c-0.6,0-1-0.4-1-1v-2c0-0.6,0.4-1,1-1h2c0.6,0,1,0.4,1,1V23z
		 M34,30c0,0.6-0.4,1-1,1h-2c-0.6,0-1-0.4-1-1v-2c0-0.6,0.4-1,1-1h2c0.6,0,1,0.4,1,1V30z M34,23c0,0.6-0.4,1-1,1h-2
		c-0.6,0-1-0.4-1-1v-2c0-0.6,0.4-1,1-1h2c0.6,0,1,0.4,1,1V23z M42,30c0,0.6-0.4,1-1,1h-2c-0.6,0-1-0.4-1-1v-2c0-0.6,0.4-1,1-1h2
		c0.6,0,1,0.4,1,1V30z M42,23c0,0.6-0.4,1-1,1h-2c-0.6,0-1-0.4-1-1v-2c0-0.6,0.4-1,1-1h2c0.6,0,1,0.4,1,1V23z"/>
	<path d="M47,15V9c0-2.2-1.8-4-4-4H5C2.8,5,1,6.8,1,9v6H47z M6,10.5c0-0.6,0.4-1,1-1h10.3c0.6,0,1,0.4,1,1v2c0,0.6-0.4,1-1,1H7
		c-0.6,0-1-0.4-1-1V10.5z"/>
</g>
</svg>
