<?xml version="1.0" encoding="utf-8"?>
<!-- Generator: Adobe Illustrator 21.0.2, SVG Export Plug-In . SVG Version: 6.00 Build 0)  -->
<svg version="1.1" id="letter_filed" xmlns="http://www.w3.org/2000/svg" xmlns:xlink="http://www.w3.org/1999/xlink" x="0px"
	 y="0px" viewBox="0 0 48 48" style="enable-background:new 0 0 48 48;" xml:space="preserve">
<path d="M14.6,23.7L2.1,36.2c-0.3,0.3-0.8,0.1-0.8-0.3c0-4.5,0-24.1,0-24.1L14.6,23.7z M26.3,27.8L46,9.8c-0.3-0.2-0.7-0.3-1.1-0.3
	L3,9.5c-0.4,0-0.8,0.2-1.1,0.4l19.7,17.9C22.9,29.1,25,29.1,26.3,27.8z M32,25l-5,4.4c-1.7,1.5-4.3,1.5-6,0l-5-4.4L3.5,37.6
	c-0.3,0.3-0.1,0.8,0.3,0.8l40.4,0c0.4,0,0.6-0.5,0.3-0.8L32,25z M46.1,36.3c0.3,0.3,0.8,0.1,0.8-0.3C47,31.5,47,11.7,47,11.7
	L33.5,23.7L46.1,36.3z"/>
</svg>
