<?xml version="1.0" encoding="utf-8"?>
<!-- Generator: Adobe Illustrator 21.0.2, SVG Export Plug-In . SVG Version: 6.00 Build 0)  -->
<svg version="1.1" id="pencil" xmlns="http://www.w3.org/2000/svg" xmlns:xlink="http://www.w3.org/1999/xlink" x="0px" y="0px"
	 viewBox="0 0 48 48" style="enable-background:new 0 0 48 48;" xml:space="preserve">
<path d="M37.3,2.6c-2.2,0-4.1,0.9-5.5,2.3c0,0,0,0,0,0l-0.3,0.3c0,0-0.1,0.1-0.1,0.1L7,29.6c-0.2,0.1-0.4,0.3-0.4,0.5L2.7,43.9
	c0,0,0,0.1,0,0.1l0,0c0,0,0,0,0,0c0,0.1,0,0.2,0,0.3c0,0.1,0,0.2,0,0.3c0,0,0,0,0,0.1c0,0,0,0,0,0c0,0.1,0.1,0.2,0.1,0.2
	c0,0,0.1,0.1,0.1,0.1c0,0,0.1,0.1,0.1,0.1c0.1,0.1,0.2,0.1,0.2,0.1c0,0,0,0,0,0c0,0,0,0,0.1,0c0.1,0,0.2,0,0.3,0c0.1,0,0.2,0,0.3,0
	c0,0,0,0,0,0l0,0c0,0,0.1,0,0.1,0L18,41.4c0.2-0.1,0.4-0.2,0.5-0.4l24.7-24.7c0.1-0.1,0.1-0.2,0.2-0.3c1.3-1.4,2.1-3.3,2.1-5.3
	C45.4,6.2,41.8,2.6,37.3,2.6z M28.5,10.9l1.6,1.6L12.1,30.5c0,0,0,0,0,0l-2.8-0.4L28.5,10.9z M31.5,13.9l2.3,2.3L15.7,34.2l-2.2-2.3
	c0,0,0,0,0,0L31.5,13.9z M10.1,41.5l-3.6-3.6l1.7-6.1l3.4,0.6c0,0,3.4,3.9,3.4,3.9l1.2,3.5L10.1,41.5z M17.9,38.8L16.8,36l18.4-18.4
	l1.9,1.9L17.9,38.8z M38.6,18.1l-8.6-8.6l0.9-0.9l8.6,8.6L38.6,18.1z M41.4,15.2L41.4,15.2l-0.5,0.5l-8.6-8.6l0.5-0.5l0,0
	c1.1-1.2,2.7-2,4.5-2c3.4,0,6.1,2.7,6.1,6.1C43.4,12.5,42.6,14.1,41.4,15.2z"/>
</svg>
