<?xml version="1.0" encoding="utf-8"?>
<!-- Generator: Adobe Illustrator 21.0.2, SVG Export Plug-In . SVG Version: 6.00 Build 0)  -->
<svg version="1.1" id="trash" xmlns="http://www.w3.org/2000/svg" xmlns:xlink="http://www.w3.org/1999/xlink" x="0px" y="0px"
	 viewBox="0 0 48 48" style="enable-background:new 0 0 48 48;" xml:space="preserve">
<path d="M42,11.4c0-2.3-1.9-4-4.2-4h-6.6c-0.5-2.8-3.9-3.9-6.8-3.9c-2.9,0-6.3,1.1-6.8,3.9H11c-2.3,0-4.1,1.8-4.1,4.1
	c0,2.1,1.5,3.7,3.5,3.9c0,0,0,0,0,0.1v24.1c0,3.2,1.6,4.9,4.9,4.9h18.2c3.2,0,4.9-1.7,4.9-4.9V15.5c0,0,0,0,0,0
	C40.4,15.2,42,13.5,42,11.4z M24.4,5.5c1.8,0,4.3,0.2,4.7,1.9h-9.5C20.1,5.7,22.6,5.5,24.4,5.5z M36.4,39.6c0,2.1-0.7,2.9-2.9,2.9
	H15.3c-2.1,0-2.9-0.7-2.9-2.9V15.5h4v23.1c0,0.6,0.4,1,1,1c0.5,0,1-0.5,1-1V15.5h5v23.1c0,0.6,0.4,1,1,1c0.5,0,1-0.5,1-1V15.5h5
	v23.1c0,0.6,0.4,1,1,1c0.5,0,1-0.5,1-1V15.5h4V39.6z M37.8,13.5H11c-1.1,0-2.1-0.9-2.1-2.1c0-1.1,0.9-2.1,2.1-2.1h26.9
	c1.1,0,2.1,0.9,2.1,2.1C39.9,12.6,39,13.5,37.8,13.5z"/>
</svg>
