<?xml version="1.0" encoding="utf-8"?>
<!-- Generator: Adobe Illustrator 21.0.2, SVG Export Plug-In . SVG Version: 6.00 Build 0)  -->
<svg version="1.1" id="status" xmlns="http://www.w3.org/2000/svg" xmlns:xlink="http://www.w3.org/1999/xlink" x="0px" y="0px"
	 viewBox="0 0 48 48" style="enable-background:new 0 0 48 48;" xml:space="preserve">
<path d="M24,8.3c-8.7,0-15.7,7-15.7,15.7c0,8.7,7,15.7,15.7,15.7s15.7-7,15.7-15.7C39.7,15.3,32.7,8.3,24,8.3z M25.8,12.4l-0.9,16.8
	h-1.8l-0.9-16.8H25.8z M25.5,35.4C25.2,35.8,24.6,36,24,36c-0.6,0-1.1-0.2-1.5-0.5c-0.4-0.3-0.6-0.9-0.6-1.6c0-1.4,0.7-2.2,2.1-2.2
	c0.7,0,1.2,0.2,1.6,0.6s0.6,0.9,0.6,1.6C26.1,34.5,25.9,35,25.5,35.4z"/>
</svg>
