<?xml version="1.0" encoding="utf-8"?>
<!-- Generator: Adobe Illustrator 21.0.2, SVG Export Plug-In . SVG Version: 6.00 Build 0)  -->
<svg version="1.1" id="book" xmlns="http://www.w3.org/2000/svg" xmlns:xlink="http://www.w3.org/1999/xlink" x="0px" y="0px"
	 viewBox="0 0 48 48" style="enable-background:new 0 0 48 48;" xml:space="preserve">
<path d="M40.7,9.3C40.5,9.1,40.3,9,40,9h-1V2c0-0.1,0-0.3-0.1-0.4C38.8,1.3,38.4,1,38,1H12C9.2,1,7,3.2,7,6v36c0,2.8,2.2,5,5,5h28
	c0.6,0,1-0.4,1-1V10C41,9.7,40.9,9.5,40.7,9.3z M12,3h25v6H21.6V6h-2v18l-0.1-0.1l0,0l0,0c-0.8-0.8-2-0.8-2.8,0L16.6,24V6h-2v3H12
	c-1.7,0-3-1.3-3-3S10.3,3,12,3z"/>
<path d="M12,7h22c0.6,0,1-0.4,1-1s-0.4-1-1-1H12c-0.6,0-1,0.4-1,1S11.4,7,12,7z"/>
</svg>
