<?xml version="1.0" encoding="utf-8"?>
<!-- Generator: Adobe Illustrator 21.0.2, SVG Export Plug-In . SVG Version: 6.00 Build 0)  -->
<svg version="1.1" id="plus_copy" xmlns="http://www.w3.org/2000/svg" xmlns:xlink="http://www.w3.org/1999/xlink" x="0px" y="0px"
	 viewBox="0 0 48 48" style="enable-background:new 0 0 48 48;" xml:space="preserve">
<path d="M28.2,24l5.9-5.9c1-1,1-2.5,0-3.5l-0.7-0.7c-1-1-2.5-1-3.5,0L24,19.8l-5.9-5.9c-1-1-2.5-1-3.5,0l-0.7,0.7c-1,1-1,2.5,0,3.5
	l5.9,5.9l-5.9,5.9c-1,1-1,2.5,0,3.5l0.7,0.7c1,1,2.5,1,3.5,0l5.9-5.9l5.9,5.9c1,1,2.5,1,3.5,0l0.7-0.7c1-1,1-2.5,0-3.5L28.2,24z"/>
</svg>
