<?xml version="1.0" encoding="utf-8"?>
<!-- Generator: Adobe Illustrator 21.0.2, SVG Export Plug-In . SVG Version: 6.00 Build 0)  -->
<svg version="1.1" id="letter" xmlns="http://www.w3.org/2000/svg" xmlns:xlink="http://www.w3.org/1999/xlink" x="0px" y="0px"
	 viewBox="0 0 48 48" style="enable-background:new 0 0 48 48;" xml:space="preserve">
<path d="M43.2,9.5H4.8c-2,0-3.7,1.6-3.7,3.6v21.8c0,2,1.6,3.6,3.7,3.6h38.5c2,0,3.7-1.6,3.7-3.6V13.1C46.8,11.1,45.3,9.5,43.2,9.5z
	 M4.7,11.3h38.5c0.4,0,0.8,0.1,1.1,0.3L26.3,27.8c-1.4,1.2-3.4,1.2-4.8,0L3.6,11.7C3.9,11.5,4.3,11.3,4.7,11.3z M3,13.5l11.6,10.2
	L3.8,34.4C3.5,34.7,3,34.5,3,34.1C3,29.7,3,13.5,3,13.5z M5.2,35.9L16.1,25l5,4.4c1.7,1.5,4.3,1.5,6,0l5-4.4l10.8,10.8
	c0.3,0.3,0.1,0.8-0.3,0.8l-36.9,0C5.2,36.7,5,36.2,5.2,35.9z M44.3,34.5L33.5,23.7l11.7-10.3c0,0-0.1,16.3-0.1,20.8
	C45.1,34.6,44.6,34.8,44.3,34.5z"/>
</svg>
