<?xml version="1.0" encoding="utf-8"?>
<!-- Generator: Adobe Illustrator 21.0.2, SVG Export Plug-In . SVG Version: 6.00 Build 0)  -->
<svg version="1.1" id="leaf_4" xmlns="http://www.w3.org/2000/svg" xmlns:xlink="http://www.w3.org/1999/xlink" x="0px" y="0px"
	 viewBox="0 0 48 48" style="enable-background:new 0 0 48 48;" xml:space="preserve">
<style type="text/css">
	.st0{fill-rule:evenodd;clip-rule:evenodd;}
</style>
<path class="st0" d="M41.4,30.8c0-3.5,3.8-2.5,3.6-9c-0.6,0.1-1.2,0-1.4-0.7c-0.4-0.9,1.9-5.2,1.1-7.5c-1,0.1-1.7-2.2-1.8-3.2
	c0-1.2,0-2.4,0-3.6c-0.4-1.3-1.6-2.7-1.8-4.3c-1.6,1.7-3.3,2.7-4.7,2.5c-0.9-0.1-1.3-0.4-1.4-0.7c-3.2-0.7-8.3,2.5-9,2.5
	c-1.3-0.1-1.4-0.4-1.8-1.1c-5.4,1.3-6.6,4.8-7.2,4.7c-1.6,0.2-1.4-0.4-2.2-1.1c-4.2,1.8-4.8,6.9-5.7,6.5c-0.7-0.1-1.1-0.4-1.4-0.7
	C4.8,18.6,2.8,23.7,3,26.5c0.3,3.1,1.3,5.9,3.9,7.2c2.7,1.3,8,0.8,11.1-1.8c0.1,0,0.2,0,0.4,0c-2.6,4.4-7,10.5-14,10.4
	c-0.6,0.3-0.8,1.4,2.5,3.2c3.4-0.5,11.9-9.1,12.9-12.2c1.3,0.9,1.1,4.5,2.2,5.7c4.5,5.3,11.3,3.3,14,1.8c-2.8-3.1,5.6-2.3,6.5-9
	C42.4,31.5,41.6,31.5,41.4,30.8z M33.5,12.9c-4.1,5.4-8.2,11-11.8,16.9c-0.2,0-0.5,0-0.7,0c0.8-5.4,9.7-14.8,12.9-19
	c1.2-1.5,3.2-2.2,4.3-3.9c0.4,0,0.7,0,1.1,0C38.2,9.5,35.1,10.7,33.5,12.9z"/>
</svg>
