<?xml version="1.0" encoding="utf-8"?>
<!-- Generator: Adobe Illustrator 21.0.2, SVG Export Plug-In . SVG Version: 6.00 Build 0)  -->
<svg version="1.1" id="Layer_1" xmlns="http://www.w3.org/2000/svg" xmlns:xlink="http://www.w3.org/1999/xlink" x="0px" y="0px"
	 viewBox="0 0 141.7 141.7" style="enable-background:new 0 0 141.7 141.7;" xml:space="preserve">
<style type="text/css">
	.st0{fill:#489CBF;}
	.st1{fill:#06A5C4;}
	.st2{fill:#245A72;}
</style>
<g>
	<path class="st0" d="M45.9,73.7L51.6,38c-2.2,0-6,0-6,0c-2.8,0-6.5-1.6-7.5-4.5c-0.3-1-1.2-4.4,3.5-7.7c1.7-1.2,2.7-2.4,3-3.4
		c0.2-1,0-1.9-0.8-2.6c-1-1-3-1.5-5.6-1.5c-4.3,0-7.4,2.5-7.7,4.3c-0.2,1.3,0.8,2.4,1.7,3.1c2.7,2,3.3,4.9,1.7,7.7
		c-1.7,2.8-5.4,4.7-9.4,4.7c0,0-3.9,0-6.2,0c-0.5,3.5-8.9,56.7-9.6,60.9h33.5c0.3-1.9,1.8-12,3.9-25.2L45.9,73.7L45.9,73.7z"/>
	<path class="st1" d="M90.7,6.9H56.7l-4.5,28.8h5.8c3.2,0,6.2-1.5,7.5-3.6c0.4-0.7,0.6-1.3,0.6-1.8c0-1.2-0.8-2.1-1.6-2.7
		c-2.2-1.7-2.7-3.4-2.7-4.7c0-0.3,0-0.5,0-0.7c0.5-3,4.6-6.3,10-6.3c3.3,0,5.7,0.8,7.2,2.2c1.3,1.2,1.8,3,1.5,4.8
		c-0.5,2.2-2.7,4-3.9,4.9c-3.3,2.3-2.9,4.3-2.7,4.9c0.7,1.8,3.3,3,5.3,3h8.8c0,0,0,0,0,0c12,0.1,18.4,5.6,16.4,18.5
		c-1.9,12-11.1,17.1-22,17.2L78,99h6.4c26.9,0,49-17.3,53.3-44.6C143.1,20.4,121.6,6.9,90.7,6.9z"/>
	<path class="st2" d="M90.7,6.9H56.7l-4.5,28.8h5.8c3.2,0,6.2-1.5,7.5-3.6c0.4-0.7,0.6-1.3,0.6-1.8c0-1.2-0.8-2.1-1.6-2.7
		c-2.2-1.7-2.7-3.4-2.7-4.7c0-0.3,0-0.5,0-0.7c0.5-3,4.6-6.3,10-6.3c3.3,0,5.7,0.8,7.2,2.2c1.3,1.2,1.8,3,1.5,4.8
		c-0.5,2.2-2.7,4-3.9,4.9c-3.3,2.3-2.9,4.3-2.7,4.9c0.7,1.8,3.3,3,5.3,3h8.8c0,0,0,0,0,0c12,0.1,18.4,5.6,16.4,18.5
		c-1.9,12-11.1,17.1-22,17.2L78,99h6.4c26.9,0,49-17.3,53.3-44.6C143.1,20.4,121.6,6.9,90.7,6.9z"/>
	<g>
		<path class="st2" d="M6.8,111.2h13.7c5.8,0,7.2,3,6.8,5.7c-0.3,2.2-1.8,3.8-4.4,4.9c3.3,1.2,4.5,3.2,4.1,6.2
			c-0.6,3.8-3.9,6.6-8.2,6.6H3.2L6.8,111.2z M15.9,120.9c2.7,0,3.9-1.4,4.2-3.1c0.3-1.8-0.6-3-3.2-3h-2.4l-0.9,6.1H15.9z M14.4,131
			c2.7,0,4.3-1.1,4.7-3.4c0.3-2-0.8-3.1-3.5-3.1H13l-1,6.6L14.4,131L14.4,131z"/>
		<path class="st2" d="M46.1,134.8c-3.6,0.3-5.3-0.1-6.1-1.7c-1.9,1.2-4,1.8-6.2,1.8c-4,0-5.4-2.1-5.1-4.4c0.2-1.1,0.8-2.2,1.8-3.1
			c2.2-1.9,7.7-2.2,9.9-3.6c0.2-1.6-0.5-2.2-2.5-2.2c-2.4,0-4.3,0.8-7.7,3.1l0.8-5.3c2.9-2.1,5.7-3.1,9-3.1c4.2,0,7.8,1.7,7.2,6.3
			l-0.8,5.1c-0.3,1.8-0.2,2.4,1.8,2.4L46.1,134.8z M40,126.7c-1.9,1.2-5.4,1-5.8,3.5c-0.2,1.2,0.6,2,1.7,2c1.1,0,2.5-0.5,3.6-1.2
			c-0.1-0.4,0-0.9,0.1-1.7L40,126.7z"/>
		<path class="st2" d="M52.8,116.5h7.1l-0.4,2.4c2.3-1.9,4-2.7,6.2-2.7c4,0,5.8,2.4,5.2,6.4l-1.8,12h-7.1l1.5-9.9
			c0.3-1.8-0.3-2.7-1.6-2.7c-1.1,0-2.1,0.6-3.1,1.9l-1.6,10.6H50L52.8,116.5z"/>
		<path class="st2" d="M76.4,111.2h7.1l-1.8,11.5l6.8-6.2h8.8l-8.7,7.7l7,10.4h-9l-5.4-8.4h-0.1l-1.3,8.4h-7.1L76.4,111.2z"/>
	</g>
	<g>
		<path class="st0" d="M101.6,111.2h8.2l-3.6,23.4H98L101.6,111.2z"/>
		<path class="st0" d="M113.8,111.2h11.7c9,0,11.7,6.6,10.8,12c-0.8,5.3-5,11.4-12.9,11.4h-13.2L113.8,111.2z M121.4,129
			c4,0,6.2-2,6.8-6.1c0.5-3.1-0.5-6.1-4.9-6.1h-2.2l-1.9,12.3H121.4z"/>
	</g>
</g>
</svg>
