<?xml version="1.0" encoding="utf-8"?>
<!-- Generator: Adobe Illustrator 21.0.2, SVG Export Plug-In . SVG Version: 6.00 Build 0)  -->
<svg version="1.1" id="Layer_1" xmlns="http://www.w3.org/2000/svg" xmlns:xlink="http://www.w3.org/1999/xlink" x="0px" y="0px"
	 viewBox="0 0 283.5 283.5" style="enable-background:new 0 0 283.5 283.5;" xml:space="preserve">
<style type="text/css">
	.st0{fill:#515151;}
	.st1{fill-rule:evenodd;clip-rule:evenodd;fill:#29B8CC;}
	.st2{fill-rule:evenodd;clip-rule:evenodd;fill:#A1D6D8;}
	.st3{fill-rule:evenodd;clip-rule:evenodd;fill:#F39157;}
</style>
<path class="st0" d="M15.6,234.6v-23.4h-3v23.4H15.6z"/>
<path class="st0" d="M45.6,234.6v-23.4h-3v17.5l-10.8-17.5h-3.2v23.4h3v-18.5l11.5,18.5H45.6z"/>
<path class="st0" d="M72.3,214v-2.9H56.6v2.9h6.4v20.6h3V214H72.3z"/>
<path class="st0" d="M96.9,234.6v-2.9H86.2v-7.9h8.3v-2.9h-8.3V214h10.4v-2.9H83.3v23.4H96.9z"/>
<path class="st0" d="M124.4,234.6l-5.1-10c2.5-1.3,4-3.7,4-6.6c0-5.3-3-6.9-7.6-6.9h-7.1v23.4h3.1v-9.1h4.6l4.9,9.1H124.4z
	 M115.7,213.7c3,0,4.5,1.6,4.5,4.3c0,3.3-2.1,4.4-3.7,4.4h-4.7v-8.6H115.7z"/>
<path class="st0" d="M152,234.6l-7.9-23.4H141l-7.9,23.4h3.1l2.1-6.3h8.4l2.1,6.3H152z M145.8,225.4h-6.5l3.3-9.8L145.8,225.4z"/>
<path class="st0" d="M178.1,234.6l-8.1-12.4l8.1-11H175l-8.1,11l8.1,12.4H178.1z M165.7,234.6v-23.4h-3v23.4H165.7z"/>
<path class="st0" d="M202.5,214v-2.9h-15.7v2.9h6.4v20.6h3V214H202.5z"/>
<path class="st0" d="M216.4,234.6v-23.4h-3v23.4H216.4z"/>
<path class="st0" d="M246.9,211.1h-3.1l-6.8,19.8l-6.9-19.8H227l8.4,23.4h3.1L246.9,211.1z"/>
<path class="st0" d="M272.5,234.6l-7.9-23.4h-3.1l-7.9,23.4h3.1l2.1-6.3h8.4l2.1,6.3H272.5z M266.4,225.4h-6.5l3.3-9.8L266.4,225.4z
	"/>
<path class="st0" d="M18.1,261.7c1.7,0,3.8-0.5,5-1.2v-7h-4.3v1.9h2.3v3.9c-0.8,0.3-1.8,0.4-2.4,0.4c-3.8,0-5.6-2.6-5.6-6.2
	c0-3.5,1.6-6.2,5.2-6.2c1.3,0,2.9,0.4,4.1,0.8l0.2-1.9c-1.1-0.5-2.9-0.9-4.3-0.9c-4.3,0-7.3,3.2-7.3,8.1
	C10.9,258.5,14,261.7,18.1,261.7z"/>
<path class="st0" d="M36.1,261.4v-1.9h-7.1v-5.3h5.5v-1.9h-5.5v-4.6h6.9v-1.9H27v15.6H36.1z"/>
<path class="st0" d="M51,261.4v-15.6h-2v11.7l-7.2-11.7h-2.1v15.6h2V249l7.7,12.3H51z"/>
<path class="st0" d="M61.9,261.7c4.2,0,7.2-3.2,7.2-8.1c0-5-3-8.1-7.2-8.1s-7.2,3.2-7.2,8.1C54.7,258.5,57.7,261.7,61.9,261.7z
	 M61.9,247.4c3.3,0,5,2.7,5,6.2c0,3.5-1.7,6.2-5,6.2c-3.3,0-5-2.7-5-6.2C56.9,250.1,58.5,247.4,61.9,247.4z"/>
<path class="st0" d="M86.9,261.4L85,245.7h-1.7l-3.8,7.7l-3.8-7.7h-1.7l-2,15.6H74l1.4-11.8l4,8.1l4-8.1l1.4,11.8H86.9z"/>
<path class="st0" d="M99.5,247.7v-1.9h-8.9v15.6h2v-7.2H98v-1.9h-5.3v-4.6H99.5z"/>
<path class="st0" d="M108.9,261.7c4.2,0,7.2-3.2,7.2-8.1c0-5-3-8.1-7.2-8.1c-4.2,0-7.2,3.2-7.2,8.1
	C101.7,258.5,104.7,261.7,108.9,261.7z M108.9,247.4c3.3,0,5,2.7,5,6.2c0,3.5-1.7,6.2-5,6.2c-3.3,0-5-2.7-5-6.2
	C103.9,250.1,105.5,247.4,108.9,247.4z M111.5,243.3v-2.2H110v2.2H111.5z M107.8,243.3v-2.2h-1.5v2.2H107.8z"/>
<path class="st0" d="M130.3,261.4l-3.4-6.6c1.7-0.8,2.7-2.5,2.7-4.4c0-3.5-2-4.6-5.1-4.6h-4.7v15.6h2.1v-6.1h3.1l3.2,6.1H130.3z
	 M124.5,247.5c2,0,3,1,3,2.9c0,2.2-1.4,2.9-2.5,2.9h-3.2v-5.8H124.5z"/>
<path class="st0" d="M144.5,261.4l-5.2-15.6h-2.1l-5.2,15.6h2.1l1.4-4.2h5.6l1.4,4.2H144.5z M140.4,255.2h-4.3l2.2-6.5L140.4,255.2z
	"/>
<path class="st0" d="M158.9,261.4v-15.6h-2v11.7l-7.2-11.7h-2.1v15.6h2V249l7.7,12.3H158.9z"/>
<path class="st0" d="M168.8,261.4c4.2,0,7.3-2.9,7.3-7.8c0-4.9-3-7.8-7.3-7.8h-5.4v15.6H168.8z M168.8,247.7c3.3,0,5.1,2.4,5.1,5.9
	c0,3.5-1.8,5.9-5.1,5.9h-3.4v-11.8H168.8z"/>
<path class="st0" d="M188.8,261.4v-1.9h-7.1v-5.3h5.5v-1.9h-5.5v-4.6h6.9v-1.9h-8.9v15.6H188.8z"/>
<path class="st0" d="M197.7,255.9c1.9,0,4.5-1.2,4.5-5.3c0-4.2-2.4-4.9-5.1-4.9h-4.7v15.6h2.1v-5.5H197.7z M196.7,247.6
	c2.6,0,3.4,0.8,3.4,3.1c0,2.1-0.8,3.3-2.8,3.3h-2.8v-6.4H196.7z"/>
<path class="st0" d="M214.2,261.4v-1.9h-6.7v-13.7h-2v15.6H214.2z"/>
<path class="st0" d="M228.2,261.4l-5.2-15.6h-2.1l-5.2,15.6h2.1l1.4-4.2h5.6l1.4,4.2H228.2z M224.1,255.2h-4.3l2.2-6.5L224.1,255.2z
	"/>
<path class="st0" d="M242.5,261.4v-15.6h-2v11.7l-7.2-11.7h-2.1v15.6h2V249l7.7,12.3H242.5z"/>
<path class="st0" d="M256.1,261.4v-1.9H249v-5.3h5.5v-1.9H249v-4.6h6.9v-1.9H247v15.6H256.1z"/>
<path class="st0" d="M271.1,261.4v-15.6h-2v11.7l-7.2-11.7h-2.1v15.6h2V249l7.7,12.3H271.1z"/>
<path class="st1" d="M135.1,22.1c30.2-3.6,57.3,24.3,57.4,34.2c0.2,9.8-26.3,73.5-56.1,73.8c-8.4,0.1-52.9-43.8-56.1-60.2
	C79.1,63,81.9,28.4,135.1,22.1z"/>
<path class="st2" d="M230.9,124.6c-29.3,25.8-62.3,29.8-64.3,28.7c-2-1.1-6.6-11.3-8.2-16.4c-1.6-5.1,19.7-24.8,28.7-36.9
	c4.2-5.6,7-9.7,16.4-13.7C213,82.4,260.1,98.8,230.9,124.6z"/>
<path class="st2" d="M64,90.5c13.6-6.2,31.8,20.8,43.8,32.8c6,6,19.2,13.2,17.8,17.8c-1.5,4.5-11.4,15-17.8,16.4
	c-6.4,1.5-8.8,1.4-13.7,1.4c-20.3,0-31.2-1.3-43.8-19.1C37.8,121.9,50.4,96.6,64,90.5z"/>
<path class="st2" d="M136.5,139.7c4.2-2.2,6.4-2.3,10.9,0c11.8,6,18.4,29,12.3,32.8c-7.9-13.1-23.3-11.7-35.6-4.1
	C123.3,168.1,120.1,148.2,136.5,139.7z"/>
<path class="st3" d="M168.6,159.3c0.6-0.9,5.3,0.5,7.7,0.4c10.6-0.3,19-3.8,30.6-4.5c5.4,1.7,5.8,5.7,5.5,10.9
	c-0.4,5.3,0.9,9-10.9,15c-11.8,6-31.8-2.3-32.2-11.3C168,165.5,168.4,161.1,168.6,159.3z"/>
<path class="st3" d="M111.9,162.9c4-2.1,6.5,10.5,4.1,16.4c-1.4,3.2-4.6,6.4-10.9,9.6c-7.8,3.9-30.8-3.6-32.8-19.1
	C83.5,159.5,97.1,172,111.9,162.9z"/>
<path class="st3" d="M150.2,172.5c4.2,3.2,6.2,8.5,3.7,14.5c-1.5,3.5-5.8,11.8-9.2,11.5c-3.4-0.2-9.9-1.7-13.6-6
	c-2.6-3-4.3-7.8-4.2-15.9C126.8,171.2,141.8,165.7,150.2,172.5z"/>
</svg>
